<svg xmlns="http://www.w3.org/2000/svg" viewBox="0 0 363.56 107.05"><defs><style>.cls-1{fill:#010101}</style></defs><title>logo</title><g id="Layer_2" data-name="Layer 2"><g id="Layer_1-2" data-name="Layer 1"><path class="cls-1" d="M0 91.33c1.25-1.17.78-2.89 1.39-4.27.87-2 1.66-4.16 4.25-4.26 2.29-.09 3.18 1.82 4.1 3.52 1.8 3.37 3.29 6.91 6 9.73 6.46 6.65 20.1 6.11 25.87-1.09 5.16-6.45 4.1-15.06-2.78-19.9-5.53-3.89-11.37-7.35-17-11-4.52-3-8.53-6.42-10.22-11.79-3.15-10.06 2-21.2 12.31-25.75 11.43-5 23.15-4.32 34.65-.12 5 1.81 5.84 3.85 5.49 9.19a15.76 15.76 0 0 1-2.75 8.59c-2.34 3.18-4.72 2.94-6.23-.65-.79-1.86-1.37-3.81-2-5.73-2.69-7.9-11.76-9.44-19.15-7.54a13 13 0 0 0-9.34 15.52c1 4.54 4.35 7.25 8.11 9.53 4.81 2.93 9.66 5.81 14.44 8.79 14.52 9 14.54 28.62 0 37.89-7.93 5.07-16.76 5.64-25.8 4.79a54.79 54.79 0 0 1-7.69-1.23C7.71 104.07 2.38 101.7 0 95.42zM249.85 43.39c6.48-6 12.91-11.68 20.66-15.59 4.47-2.26 9.09-4 14.23-3.37 7.12.91 10.16 4.15 10.39 11.35.25 7.77-1.84 15.21-3.53 22.69-2.48 11-5.08 21.95-7.56 32.93a22 22 0 0 0-.36 4.38c0 1.82.64 3.08 2.75 3.06 1.17 0 2.35.13 2.64 1.55a3.15 3.15 0 0 1-1.53 3.18 4.07 4.07 0 0 1-1.46.8c-4.91 1.14-9.93.85-14.82.27-2.42-.29-2.45-3.18-2.1-5.39 1.41-8.8 4-17.34 5.9-26 2.09-9.46 5-18.73 6.19-28.39a16.58 16.58 0 0 0-.23-5c-.59-3.22-2.46-4.92-5.82-4.93-8.18 0-13.93 4.73-19.23 10.06a43.22 43.22 0 0 0-12.11 22.62c-1.74 8.84-4 17.57-5.95 26.37-.55 2.5-.45 4.68 3.08 5.07 2 .23 2.13 2.87.35 4.47a5.87 5.87 0 0 1-3.78 1.29q-9 .3-18 .08c-2 0-3.23-1.39-3.32-3.56-.1-2.39 1.63-2.24 3.21-2.44 3.52-.45 4.3-3.35 5-6.05Q226.89 83.43 229 74c2.79-12.53 6.33-24.9 8.56-37.56.43-2.46.36-4.36-2.78-5.06-2.22-.5-1.74-2.3-.68-3.7a5.55 5.55 0 0 1 3.56-1.76c3.59-.76 7.23-.46 10.84-.44 4.27 0 5.29 1.27 4.42 5.45s-2.05 8.32-3.07 12.46zM344.27 25.48h15.79c1.21 0 2.68-.27 3.26 1.16a4.14 4.14 0 0 1-.68 3.84 6.28 6.28 0 0 1-5.7 3c-4.08 0-8.16.12-12.23 0-1.76-.06-2.6.43-3 2.17-4 17.56-8.13 35.11-12.15 52.68a18.25 18.25 0 0 0-.27 4.73c.11 2.83 1.53 4.67 4.46 5.05 2 .26 4 .49 6.06.62 1 .06 1.93.17 2.26 1.12a2.42 2.42 0 0 1-.68 2.79c-.17.14-.32.32-.49.46-3.93 3.33-17.28 4-21.43 1.07-3.95-2.83-5-6.87-4.17-11.41 2.46-14 6.37-27.64 9.49-41.47 1.14-5 2.39-10.08 3.7-15.08.59-2.24-.08-2.88-2.34-2.71-2.59.2-5.21 0-7.81.06-1.67 0-3-.38-3.21-2.22a3 3 0 0 1 2.35-3.56c1.3-.33 2.55-.86 3.83-1.28a26.09 26.09 0 0 0 17.18-16.9 29.53 29.53 0 0 1 2.78-6.5c1-1.45 2-2.67 3.91-2.93 4.09-.58 5 .35 4 4.37-1.57 6.87-3.18 13.75-4.91 20.94zM122.35 23.23A27.45 27.45 0 0 1 136.2 26c4.15 2.18 5.19 4.07 4.74 8.73a19.14 19.14 0 0 1-3.67 9.67c-.82 1.12-1.84 2.11-3.37 1.88s-2.13-1.52-2.6-2.83c-.76-2.11-1-4.37-2-6.44-2.89-5.9-6.37-7.74-13-7.3a22.22 22.22 0 0 0-16.47 8.93c-10.91 13.85-14.4 29.78-11.16 46.85 2.2 11.59 12.85 16.19 24.2 11.46a30 30 0 0 0 10.56-7.76c.61-.67 1.15-1.4 1.78-2.05 1.48-1.55 3.2-3 5.25-1.22 2.23 1.9.93 3.94-.5 5.61a43.92 43.92 0 0 1-9.96 8.67c-8.61 5.46-17.81 8-28 6.07-9.65-1.78-17.61-9.76-18.38-19.94C71.94 63.86 79.36 45 97.43 31c7.06-5.46 15.31-8 24.92-7.77zM205.57 24.16c-14.78-2.88-28.39 0-39.88 10.1-13.13 11.49-18.67 26.48-19 43.43a71.72 71.72 0 0 0 .89 10.7c1.74 8.53 7.77 16.94 18 18.19 7.42.9 14.66.5 21.66-2.21S199.58 97 204 91.11c1.18-1.57 1.7-3.42 0-4.85-1.52-1.29-3.22-.65-4.6.59-.93.83-1.76 1.76-2.66 2.63a38.53 38.53 0 0 1-10.42 7.47c-9.9 4.56-19.13 1.4-23.17-8.06-2.95-6.9-2.38-14.12-1.58-21.35.24-2.18 1.73-1.9 3.16-2 9.89-.89 19.9-1.14 29.32-4.78 9-3.47 16.81-8.36 20.34-18 3.3-9-.26-16.93-8.82-18.6zm-6.43 24c-4.21 6.05-10.73 8.27-17.56 9.8-5.21 1.16-10.54 1.23-15.81 1.76-1.5.15-2.16 0-1.56-1.75 3.24-9.25 7.36-17.91 15.32-24.19a19.4 19.4 0 0 1 12.41-4.12c2.93.31 6.75.92 8.62 4.73 2.35 4.82 1.52 9.61-1.42 13.82z"/></g></g></svg>