<svg xmlns="http://www.w3.org/2000/svg" viewBox="0 0 104.3 40.64"><title>nav-cart</title><path d="M13.66,17.87c-4.2-.63-7.24,2.41-8.1,8.14s1.07,9.37,5.2,10a5.37,5.37,0,0,0,6.51-4.34l5.2.78c-1.21,5.9-6.08,9-12.52,8-7.23-1.08-11-7-9.72-15.32s6.6-13,13.93-11.86c6.05.91,9.85,4.93,9.44,10.84l-5.09-.76C18.43,22,18.11,18.54,13.66,17.87Z"/><path d="M36.94,32.18l.66,5.54-5,2.35L29.85,12.35,35.26,9.8,54.66,29.67l-5,2.37-3.82-4ZM35.1,16.73l1.29,10.74,6.19-2.92Z"/><path d="M69.57,19c-.32-2.17-1.45-3-3.77-2.61l-6.13.9,1.51,10.29-5.34.78L52,2.41,66,.37c5.59-.82,7.59,3.11,8,6a6.39,6.39,0,0,1-3.44,7.05c3.52.94,3.72,1.27,5,8.91a2.09,2.09,0,0,0,1.45,2l.14,1-5.73.84c-.86-1.15-1.12-1.91-1.47-4.33C69.62,19.84,69.73,20.12,69.57,19ZM64.48,5.13,58,6.08l1,6.77,6.45-.94c2.21-.32,3.71-1,3.27-4S66.72,4.8,64.48,5.13Z"/><path d="M90.67,28.65l-5.25-1.27L90.54,6.25,82.8,4.37,83.86,0,104.3,4.95l-1.06,4.37-7.45-1.8Z"/></svg>