<svg xmlns="http://www.w3.org/2000/svg" viewBox="0 0 104.68 35.7"><title>nav-shop</title><path d="M15,9.58c-1-2.47-3.29-3.22-6.53-2.13-2.63.88-3.9,2.64-3.27,4.52s1.91,2.17,5.8,1.66l4.14-.56c4.9-.66,7.57.72,8.89,4.64,1.7,5-1.08,9.33-7.49,11.49s-11,.47-13.07-4.75l5-1.68c1.07,2.6,3.51,3.42,7,2.24,3.1-1,4.59-3,3.89-5s-2.26-2.54-5.89-2l-3.71.49c-5.37.75-7.95-.48-9.25-4.33-1.63-4.84.87-8.8,6.84-10.81C11.19,2,17.49,1.18,19.78,8Z"/><path d="M35.42,15.06,33.32,26.78l-5.31-1L32.64,0,38,1l-1.74,9.67,10.2,1.83,1.74-9.67,5.35,1L48.87,29.58l-5.31-1L45.66,16.9Z"/><path d="M71.08,8.5c7.42,1.65,11.15,8.21,9.33,16.36-1.64,7.34-7.6,12.21-15.29,10.5C57.6,33.68,54,27,55.78,19.18S63.63,6.84,71.08,8.5Zm-10,11.85c-1.2,5.38.82,9.55,5.07,10.5s7.86-2,9-7.21c1.24-5.55-.72-9.68-5-10.64S62.25,15,61.05,20.36Z"/><path d="M95.72,33.41l-5.14,1.66-8.06-25,11-3.56c5.21-1.68,8.94.14,10.55,5.14s-.26,9.28-4.85,10.76L92.84,24.5Zm.54-14.74c2.74-.88,3.62-2.49,2.8-5s-2.48-3.36-5.23-2.47L89,12.72l2.42,7.5Z"/></svg>