<svg xmlns="http://www.w3.org/2000/svg" viewBox="0 0 125.76 46.82"><title>nav-about</title><path d="M6.4,23.38l-1,5.5L0,29.7,5.29,2.35l5.91-.89L24.1,26.05l-5.48.83-2.5-5ZM9.07,8,7.22,18.7l6.76-1Z"/><path d="M38.16,26.46l-11.81-.22L26.84,0l11.7.22C45.45.35,47,4.88,47,7.29c0,2.23-1.08,3.72-3.7,5.33,2.92,1.78,4.29,3.86,4.24,6.45C47.45,22.21,45.54,26.6,38.16,26.46Zm-6.32-4.62,6.44.12c2.63,0,4-1.11,4.06-3.31S41,15.21,38.4,15.16L32,15ZM32,10.54l5.87.11c2.48,0,3.83-1,3.87-2.88s-1.28-3-3.76-3.06L32.15,4.6Z"/><path d="M71.29,8.53C78,12.06,79.9,19.36,76,26.75c-3.5,6.66-10.53,9.79-17.5,6.12-6.81-3.59-8.49-11-4.77-18.05S64.53,5,71.29,8.53ZM58.51,17.34c-2.57,4.87-1.71,9.43,2.14,11.46s8.09.15,10.59-4.59c2.65-5,1.84-9.52-2.07-11.59S61.08,12.46,58.51,17.34Z"/><path d="M79.89,36.16l2.25-17.64,5.36.68L85.25,36.85c-.4,3.14,1,4.85,4.37,5.28s5.15-.87,5.56-4l2.25-17.64,5.36.68L100.53,38.8c-.94,7.36-7.1,8.45-11.5,7.89S79,43.52,79.89,36.16Z"/><path d="M120.68,44.36l-5.36.63L112.78,23.4l-7.9.93-.52-4.47,20.88-2.45.52,4.47-7.62.89Z"/></svg>